@startuml FrontEndClassDiagram
class HomePage {
    - 
    - <color:red>searchText: String
    ~ events : Query
    ~ <color:red>tags : Query
    --
    + <color:blue>PopularEvents
    + <color:blue>EventsSlider
    + EventCard
    + <color:red>SideBar
    + <color:red>Tags 
    + <color:red>SelectedTags
}

class App {
    --
    + NavigationBar
    + ToggleSlider
    + Alerts
}
class CalendarPage {
    ~ events : Query
    --
    + Calendar
    + Monthly
    + Weekly
    + Daily
    + DayEventModal
}
class EventPage {
    -Image : Img
    -Event : Event
    --
    + DateAndTimeBox
    + LocationBox
}

App*-- HomePage 
App*-- CalendarPage   
HomePage-- EventPage
CalendarPage-- EventPage

legend
    |= Example  |= Description |
    |        ○ | A Component |
    |        □ | A Variable/UseState |
    |        <size:11>△ | Query or Mutation |
    |<color:red> Red text | Newly added|
    |<color:blue> Blue text | Updated |
endlegend
@enduml


class AddEventPage {
}
class VerifyPage {
}
class AccountPage {
}
class LoginPage {
    }
