@startuml FrontEndClassDiagram
class HomePage {
    - 
    - searchText: String
    ~ events : Query
    ~ tags : Query
    --
    + PopularEvents
    + EventsSlider
    + EventCard
    + SideBar
    + Tags 
    + SelectedTags
}

class App {
    -<color:red> isLoggedIn : Boolean
    ~<color:red>validateSession : Query
    --
    + <color:blue>NavigationBar
    + ToggleSlider
    + <color:blue>Alerts
}
class CalendarPage {
    ~ events : Query 
    --
    + Calendar
    + Monthly
    + Weekly
    + Daily
    + DayEventModal    
}
class EventPage {
    -Image : Img
    -Event : Event
    ~addSelfToEvent : Mutation
    --
    + DateAndTimeBox
    + AddToCalendarButton
    + LocationBox
}
class LoginPage {
    ~ createUser : Mutation
    ~ <color:red>login : Mutation
    --
    +Register
    +<color:blue>reCaptha
    +<color:red>Login
    +<color:red>Password
    }
    class VerifyPage {
    ~ verifyUser : Mutation
    ~ resendRegistrationVerificationEmail : Mutation
    --
}
class AccountPage {
    ~ <color:red>signOut : Mutation
    --
    +<color:red>reCaptha
}

App*-- HomePage 
App*-- CalendarPage   
App*-- LoginPage
App*-- AccountPage
App*-- VerifyPage
HomePage-- EventPage
CalendarPage-- EventPage

legend
    |= Example  |= Description |
    |        ○ | A Component |
    |        □ | A Variable/UseState |
    |        <size:11>△ | Query or Mutation |
    |<color:red> Red text | Newly added|
    |<color:blue> Blue text | Updated |
endlegend
@enduml


class AddEventPage {
    --
}



